<svg width="62" height="51" viewBox="0 0 62 51" fill="none" xmlns="http://www.w3.org/2000/svg">
<path fill-rule="evenodd" clip-rule="evenodd" d="M16.9021 40.6064C18.0907 40.6064 19.0542 41.57 19.0542 42.7585V48.7883C19.0542 49.9769 18.0907 50.9404 16.9021 50.9404C15.7135 50.9404 14.75 49.9769 14.75 48.7883V42.7585C14.75 41.57 15.7135 40.6064 16.9021 40.6064Z" fill="#B21F18"/>
<path fill-rule="evenodd" clip-rule="evenodd" d="M45.0408 40.6064C46.2293 40.6064 47.1929 41.57 47.1929 42.7585V48.7883C47.1929 49.9769 46.2293 50.9404 45.0408 50.9404C43.8522 50.9404 42.8887 49.9769 42.8887 48.7883V42.7585C42.8887 41.57 43.8522 40.6064 45.0408 40.6064Z" fill="#B21F18"/>
<path fill-rule="evenodd" clip-rule="evenodd" d="M17.9075 4.71037C17.1456 4.71037 16.4149 5.01304 15.8761 5.55179C15.3373 6.09055 15.0347 6.82126 15.0347 7.58317V20.6478C15.0347 21.8364 14.0711 22.7999 12.8826 22.7999C11.694 22.7999 10.7305 21.8364 10.7305 20.6478V7.58317C10.7305 5.67973 11.4866 3.85425 12.8326 2.50832C14.1785 1.16239 16.004 0.40625 17.9075 0.40625C19.811 0.40625 21.6365 1.16239 22.9824 2.50832C24.3284 3.85425 25.0845 5.67973 25.0845 7.58317C25.0845 8.77172 24.121 9.73523 22.9324 9.73523C21.7439 9.73523 20.7803 8.77172 20.7803 7.58317C20.7803 6.82126 20.4777 6.09055 19.9389 5.55179C19.4001 5.01304 18.6694 4.71037 17.9075 4.71037Z" fill="#B21F18"/>
<path fill-rule="evenodd" clip-rule="evenodd" d="M30.8301 18.6394C30.8301 17.4508 31.7936 16.4873 32.9822 16.4873H49.062C50.2505 16.4873 51.2141 17.4508 51.2141 18.6394V30.699C51.2141 31.8876 50.2505 32.8511 49.062 32.8511H32.9822C31.7936 32.8511 30.8301 31.8876 30.8301 30.699V18.6394ZM35.1343 20.7914V28.547H46.9099V20.7914H35.1343Z" fill="#B21F18"/>
<path fill-rule="evenodd" clip-rule="evenodd" d="M4.98388 22.8002H32.9814C34.17 22.8002 35.1335 21.8367 35.1335 20.6482C35.1335 19.4596 34.17 18.4961 32.9814 18.4961H4.84176C3.73791 18.4961 2.67927 18.9346 1.89873 19.7151C1.11819 20.4956 0.679688 21.5543 0.679688 22.6581V30.6979C0.679688 34.4671 2.17701 38.0819 4.84227 40.7471C7.50753 43.4123 11.1224 44.9096 14.8916 44.9096H47.0512C50.8205 44.9096 54.4353 43.4123 57.1006 40.7471C59.7658 38.0819 61.2632 34.4671 61.2632 30.6979V22.6581C61.2632 21.5543 60.8247 20.4956 60.0441 19.7151C59.2636 18.9346 58.2049 18.4961 57.1011 18.4961H49.0612C47.8726 18.4961 46.9091 19.4596 46.9091 20.6482C46.9091 21.8367 47.8726 22.8002 49.0612 22.8002H56.959V30.6979C56.959 33.3255 55.9151 35.8456 54.0571 37.7036C52.199 39.5616 49.6789 40.6055 47.0512 40.6055H14.8916C12.2639 40.6055 9.74385 39.5616 7.88579 37.7036C6.02773 35.8456 4.98388 33.3255 4.98388 30.6979V22.8002Z" fill="#B21F18"/>
</svg>
