<svg width="65" height="66" viewBox="0 0 65 66" fill="none" xmlns="http://www.w3.org/2000/svg">
<path d="M8.12436 52.36C7.357 52.36 6.71332 52.1 6.19332 51.58C5.67332 51.06 5.41422 50.4172 5.41602 49.6517V36.11C5.41602 34.8913 5.66429 33.7854 6.16082 32.7923C6.65734 31.7993 7.31186 30.9191 8.12436 30.1517V22.5684C8.12436 20.3114 8.91429 18.393 10.4942 16.8132C12.074 15.2333 13.9924 14.4434 16.2494 14.4434H27.0827C28.1209 14.4434 29.0914 14.6357 29.9942 15.0202C30.8969 15.4048 31.732 15.9347 32.4994 16.61C33.2667 15.9329 34.1018 15.403 35.0046 15.0202C35.9073 14.6375 36.8778 14.4452 37.916 14.4434H48.7494C51.0063 14.4434 52.9247 15.2333 54.5046 16.8132C56.0844 18.393 56.8744 20.3114 56.8744 22.5684V30.1517C57.6869 30.9191 58.3414 31.7993 58.8379 32.7923C59.3344 33.7854 59.5827 34.8913 59.5827 36.11V49.6517C59.5827 50.4191 59.3227 51.0627 58.8027 51.5827C58.2827 52.1027 57.6399 52.3618 56.8744 52.36C56.107 52.36 55.4633 52.1 54.9433 51.58C54.4233 51.06 54.1642 50.4172 54.166 49.6517V46.9434H10.8327V49.6517C10.8327 50.4191 10.5727 51.0627 10.0527 51.5827C9.53269 52.1027 8.88991 52.3618 8.12436 52.36ZM35.2077 27.985H51.4577V22.5684C51.4577 21.801 51.1977 21.1573 50.6777 20.6373C50.1577 20.1173 49.5149 19.8582 48.7494 19.86H37.916C37.1487 19.86 36.505 20.12 35.985 20.64C35.465 21.16 35.2059 21.8028 35.2077 22.5684V27.985ZM13.541 27.985H29.791V22.5684C29.791 21.801 29.531 21.1573 29.011 20.6373C28.491 20.1173 27.8482 19.8582 27.0827 19.86H16.2494C15.482 19.86 14.8383 20.12 14.3183 20.64C13.7983 21.16 13.5392 21.8028 13.541 22.5684V27.985ZM10.8327 41.5267H54.166V36.11C54.166 35.3427 53.906 34.699 53.386 34.179C52.866 33.659 52.2232 33.3999 51.4577 33.4017H13.541C12.7737 33.4017 12.13 33.6617 11.61 34.1817C11.09 34.7017 10.8309 35.3445 10.8327 36.11V41.5267Z" fill="#B21F18"/>
</svg>
