<svg width="24" height="35" viewBox="0 0 24 35" fill="none" xmlns="http://www.w3.org/2000/svg">
<path d="M3.42857 0H20.5714C21.4807 0 22.3528 0.368749 22.9958 1.02513C23.6388 1.6815 24 2.57174 24 3.5V31.5C24 32.4283 23.6388 33.3185 22.9958 33.9749C22.3528 34.6312 21.4807 35 20.5714 35H3.42857C2.51926 35 1.64719 34.6312 1.00421 33.9749C0.361223 33.3185 0 32.4283 0 31.5V3.5C0 2.57174 0.361223 1.6815 1.00421 1.02513C1.64719 0.368749 2.51926 0 3.42857 0ZM3.42857 3.5V10.5H20.5714V3.5H3.42857ZM3.42857 14V17.5H6.85714V14H3.42857ZM10.2857 14V17.5H13.7143V14H10.2857ZM17.1429 14V17.5H20.5714V14H17.1429ZM3.42857 21V24.5H6.85714V21H3.42857ZM10.2857 21V24.5H13.7143V21H10.2857ZM17.1429 21V24.5H20.5714V21H17.1429ZM3.42857 28V31.5H6.85714V28H3.42857ZM10.2857 28V31.5H13.7143V28H10.2857ZM17.1429 28V31.5H20.5714V28H17.1429Z" fill="white"/>
</svg>
