<svg width="62" height="47" viewBox="0 0 62 47" fill="none" xmlns="http://www.w3.org/2000/svg">
<path fill-rule="evenodd" clip-rule="evenodd" d="M0.679688 20.5993C0.679688 19.4108 1.64321 18.4473 2.83178 18.4473H59.1111C60.2996 18.4473 61.2632 19.4108 61.2632 20.5993C61.2632 21.7879 60.2996 22.7514 59.1111 22.7514H2.83178C1.64321 22.7514 0.679688 21.7879 0.679688 20.5993Z" fill="#B21F18"/>
<path fill-rule="evenodd" clip-rule="evenodd" d="M45.0408 34.5264C46.2293 34.5264 47.1929 35.4899 47.1929 36.6784V42.5661H52.9385V36.6784C52.9385 35.4899 53.9021 34.5264 55.0906 34.5264C56.2792 34.5264 57.2427 35.4899 57.2427 36.6784V42.7083C57.2427 43.8121 56.8042 44.8707 56.0237 45.6512C55.2431 46.4318 54.1845 46.8703 53.0807 46.8703H47.0507C45.9469 46.8703 44.8883 46.4318 44.1077 45.6512C43.3272 44.8707 42.8887 43.8121 42.8887 42.7083V36.6784C42.8887 35.4899 43.8522 34.5264 45.0408 34.5264Z" fill="#B21F18"/>
<path fill-rule="evenodd" clip-rule="evenodd" d="M6.85131 34.5264C8.03988 34.5264 9.00341 35.4899 9.00341 36.6784V42.5661H14.7491V36.6784C14.7491 35.4899 15.7126 34.5264 16.9012 34.5264C18.0898 34.5264 19.0533 35.4899 19.0533 36.6784V42.7083C19.0533 43.8121 18.6148 44.8707 17.8342 45.6512C17.0537 46.4318 15.9951 46.8703 14.8912 46.8703H8.86129C7.75744 46.8703 6.6988 46.4318 5.91826 45.6512C5.13772 44.8707 4.69922 43.8121 4.69922 42.7083V36.6784C4.69922 35.4899 5.66274 34.5264 6.85131 34.5264Z" fill="#B21F18"/>
<path fill-rule="evenodd" clip-rule="evenodd" d="M12.7402 28.6384C12.7402 27.4498 13.7038 26.4863 14.8923 26.4863H18.9123C20.1008 26.4863 21.0644 27.4498 21.0644 28.6384C21.0644 29.8269 20.1008 30.7904 18.9123 30.7904H14.8923C13.7038 30.7904 12.7402 29.8269 12.7402 28.6384Z" fill="#B21F18"/>
<path fill-rule="evenodd" clip-rule="evenodd" d="M40.8789 28.6384C40.8789 27.4498 41.8424 26.4863 43.031 26.4863H47.051C48.2395 26.4863 49.203 27.4498 49.203 28.6384C49.203 29.8269 48.2395 30.7904 47.051 30.7904H43.031C41.8424 30.7904 40.8789 29.8269 40.8789 28.6384Z" fill="#B21F18"/>
<path fill-rule="evenodd" clip-rule="evenodd" d="M16.1977 0.357422H45.753C46.56 0.360682 47.3486 0.598458 48.0229 1.04182C48.6947 1.48352 49.2241 2.11027 49.5472 2.84629C49.5484 2.84908 49.5496 2.85186 49.5509 2.85464L57.0569 19.7241C57.1795 19.9995 57.2428 20.2976 57.2428 20.599V36.6785C57.2428 37.8671 56.2793 38.8306 55.0907 38.8306H6.85131C5.66274 38.8306 4.69922 37.8671 4.69922 36.6785V20.599C4.69922 20.2976 4.76254 19.9995 4.88507 19.7241L12.3948 2.84627C12.718 2.11027 13.2474 1.48352 13.9191 1.04182C14.5934 0.598458 15.3821 0.360682 16.189 0.357439L16.1977 0.357422ZM16.2981 4.66154L9.00341 21.0561V34.5265H52.9386V21.0561L45.6439 4.66154H16.2981Z" fill="#B21F18"/>
</svg>
