<svg width="64" height="66" viewBox="0 0 64 66" fill="none" xmlns="http://www.w3.org/2000/svg">
<path d="M10.6673 57.776V52.3594C9.20066 52.3594 7.94466 51.8285 6.89932 50.7669C5.85399 49.7052 5.33221 48.4305 5.33399 46.9427V17.151C5.33399 15.6615 5.85666 14.3858 6.90199 13.3242C7.94732 12.2625 9.20243 11.7326 10.6673 11.7344H53.334C54.8007 11.7344 56.0567 12.2652 57.102 13.3269C58.1473 14.3885 58.6691 15.6633 58.6673 17.151V46.9427C58.6673 48.4323 58.1447 49.7079 57.0993 50.7696C56.054 51.8313 54.7989 52.3612 53.334 52.3594V57.776H50.6673L48.934 52.3594H15.134L13.334 57.776H10.6673ZM10.6673 46.9427H53.334V17.151H10.6673V46.9427Z" fill="#B21F18"/>
</svg>
