<svg width="22" height="22" viewBox="0 0 22 22" fill="none" xmlns="http://www.w3.org/2000/svg">
<g id="ph:instagram-logo-fill">
<path id="Vector" d="M15.125 2.0625H6.875C5.59906 2.06386 4.37578 2.57133 3.47356 3.47356C2.57133 4.37578 2.06386 5.59906 2.0625 6.875V15.125C2.06386 16.4009 2.57133 17.6242 3.47356 18.5264C4.37578 19.4287 5.59906 19.9361 6.875 19.9375H15.125C16.4009 19.9361 17.6242 19.4287 18.5264 18.5264C19.4287 17.6242 19.9361 16.4009 19.9375 15.125V6.875C19.9361 5.59906 19.4287 4.37578 18.5264 3.47356C17.6242 2.57133 16.4009 2.06386 15.125 2.0625ZM11 15.125C10.1842 15.125 9.38663 14.8831 8.70827 14.4298C8.02992 13.9766 7.50121 13.3323 7.189 12.5786C6.87679 11.8248 6.7951 10.9954 6.95426 10.1953C7.11343 9.39508 7.50629 8.66008 8.08318 8.08318C8.66008 7.50629 9.39508 7.11343 10.1953 6.95426C10.9954 6.7951 11.8248 6.87679 12.5786 7.189C13.3323 7.50121 13.9766 8.02992 14.4298 8.70827C14.8831 9.38663 15.125 10.1842 15.125 11C15.1239 12.0937 14.6889 13.1422 13.9156 13.9156C13.1422 14.6889 12.0937 15.1239 11 15.125ZM16.1562 6.875C15.9523 6.875 15.7529 6.81452 15.5833 6.7012C15.4137 6.58789 15.2816 6.42683 15.2035 6.23839C15.1254 6.04996 15.105 5.84261 15.1448 5.64256C15.1846 5.44252 15.2828 5.25877 15.427 5.11455C15.5713 4.97032 15.755 4.87211 15.9551 4.83231C16.1551 4.79252 16.3625 4.81295 16.5509 4.891C16.7393 4.96905 16.9004 5.10123 17.0137 5.27082C17.127 5.44041 17.1875 5.63979 17.1875 5.84375C17.1875 6.11725 17.0788 6.37956 16.8855 6.57295C16.6921 6.76635 16.4298 6.875 16.1562 6.875ZM13.75 11C13.75 11.5439 13.5887 12.0756 13.2865 12.5278C12.9844 12.9801 12.5549 13.3325 12.0524 13.5407C11.5499 13.7488 10.9969 13.8033 10.4635 13.6972C9.93005 13.5911 9.44005 13.3291 9.05546 12.9445C8.67086 12.5599 8.40895 12.0699 8.30284 11.5365C8.19673 11.0031 8.25119 10.4501 8.45933 9.94762C8.66747 9.44512 9.01995 9.01563 9.47218 8.71346C9.92442 8.41128 10.4561 8.25 11 8.25C11.7293 8.25 12.4288 8.53973 12.9445 9.05546C13.4603 9.57118 13.75 10.2707 13.75 11Z" fill="white"/>
</g>
</svg>
