<svg width="63" height="54" viewBox="0 0 63 54" fill="none" xmlns="http://www.w3.org/2000/svg">
<path fill-rule="evenodd" clip-rule="evenodd" d="M31.6958 0.113281C32.9194 0.113281 33.9113 1.10249 33.9113 2.32273V6.82057C41.3275 7.34993 48.3353 10.5236 53.6276 15.8015C59.4442 21.6024 62.712 29.4702 62.712 37.6739C62.712 39.4319 62.0117 41.1178 60.7653 42.3609C59.5189 43.6039 57.8284 44.3023 56.0657 44.3023H7.326C5.56329 44.3023 3.87277 43.6039 2.62635 42.3609C1.37992 41.1178 0.679688 39.4319 0.679688 37.6739C0.679688 29.4702 3.94745 21.6024 9.76411 15.8015C15.0563 10.5236 22.0642 7.34993 29.4804 6.82057V2.32273C29.4804 1.10249 30.4723 0.113281 31.6958 0.113281ZM31.6958 11.1605C24.645 11.1605 17.8829 13.9539 12.8972 18.9261C7.91151 23.8983 5.11057 30.6421 5.11057 37.6739C5.11057 38.2599 5.34398 38.8219 5.75945 39.2362C6.17493 39.6506 6.73843 39.8834 7.326 39.8834H56.0657C56.6532 39.8834 57.2167 39.6506 57.6322 39.2362C58.0477 38.8219 58.2811 38.2599 58.2811 37.6739C58.2811 30.6421 55.4802 23.8983 50.4945 18.9261C45.5088 13.9539 38.7467 11.1605 31.6958 11.1605ZM0.679688 50.9306C0.679688 49.7104 1.67157 48.7212 2.89513 48.7212H60.4965C61.7201 48.7212 62.712 49.7104 62.712 50.9306C62.712 52.1509 61.7201 53.1401 60.4965 53.1401H2.89513C1.67157 53.1401 0.679688 52.1509 0.679688 50.9306Z" fill="#B21F18"/>
</svg>
