<svg width="64" height="47" viewBox="0 0 64 47" fill="none" xmlns="http://www.w3.org/2000/svg">
<path d="M2.67969 35.0333V44.0378M8.58276 14.0227V8.01963C8.58276 6.42753 9.20469 4.90064 10.3117 3.77485C11.4188 2.64906 12.9202 2.0166 14.4858 2.0166H49.9043C51.4699 2.0166 52.9713 2.64906 54.0784 3.77485C55.1854 4.90064 55.8073 6.42753 55.8073 8.01963V14.0227M8.58276 14.0227C10.1484 14.0227 11.6498 14.6551 12.7569 15.7809C13.8639 16.9067 14.4858 18.4336 14.4858 20.0257V26.0287H49.9043V20.0257C49.9043 18.4336 50.5262 16.9067 51.6332 15.7809C52.7403 14.6551 54.2418 14.0227 55.8073 14.0227M8.58276 14.0227C7.01717 14.0227 5.5157 14.6551 4.40866 15.7809C3.30162 16.9067 2.67969 18.4336 2.67969 20.0257V38.0348H61.7104V20.0257C61.7104 18.4336 61.0885 16.9067 59.9814 15.7809C58.8744 14.6551 57.3729 14.0227 55.8073 14.0227M61.7104 35.0333V44.0378" stroke="#B21F18" stroke-width="4" stroke-linecap="round" stroke-linejoin="round"/>
</svg>
