<svg width="32" height="31" viewBox="0 0 32 31" fill="none" xmlns="http://www.w3.org/2000/svg">
<rect x="0.716797" y="0.0908203" width="30.5657" height="30.5657" rx="2.14141" fill="#1D242A"/>
<path d="M16 22.9365C16 22.9365 7.40625 18.124 7.40625 12.2803C7.40625 11.2472 7.76417 10.2461 8.41913 9.44714C9.07408 8.64823 9.9856 8.10091 10.9986 7.89831C12.0116 7.69571 13.0635 7.85034 13.9754 8.33589C14.8872 8.82145 15.6027 9.60793 16 10.5615V10.5615C16.3973 9.60793 17.1128 8.82145 18.0246 8.33589C18.9365 7.85034 19.9884 7.69571 21.0014 7.89831C22.0144 8.10091 22.9259 8.64823 23.5809 9.44714C24.2358 10.2461 24.5938 11.2472 24.5938 12.2803C24.5938 18.124 16 22.9365 16 22.9365Z" stroke="white" stroke-width="1.38209" stroke-linecap="round" stroke-linejoin="round"/>
</svg>
