<svg width="35" height="35" viewBox="0 0 35 35" fill="none" xmlns="http://www.w3.org/2000/svg">
<path d="M3.88889 35C2.81945 35 1.90361 34.6189 1.14139 33.8567C0.37917 33.0944 -0.00129299 32.1793 3.30126e-06 31.1111V3.88889C3.30126e-06 2.81945 0.381114 1.90361 1.14334 1.14139C1.90556 0.37917 2.82074 -0.00129299 3.88889 3.30126e-06H21.7292C22.2477 3.30126e-06 22.7422 0.0972257 23.2128 0.29167C23.6833 0.486115 24.0962 0.761577 24.4514 1.11806L33.8819 10.5486C34.2384 10.9051 34.5139 11.3186 34.7083 11.7892C34.9028 12.2597 35 12.7536 35 13.2708V31.1111C35 32.1806 34.6189 33.0964 33.8567 33.8586C33.0944 34.6208 32.1793 35.0013 31.1111 35H3.88889ZM9.72222 27.2222H25.2778C25.8287 27.2222 26.2908 27.0356 26.6642 26.6622C27.0375 26.2889 27.2235 25.8274 27.2222 25.2778C27.2222 24.7269 27.0356 24.2647 26.6622 23.8914C26.2889 23.5181 25.8274 23.332 25.2778 23.3333H9.72222C9.1713 23.3333 8.70917 23.52 8.33584 23.8933C7.9625 24.2667 7.77648 24.7281 7.77778 25.2778C7.77778 25.8287 7.96445 26.2908 8.33778 26.6642C8.71111 27.0375 9.1726 27.2235 9.72222 27.2222ZM9.72222 19.4444H25.2778C25.8287 19.4444 26.2908 19.2578 26.6642 18.8844C27.0375 18.5111 27.2235 18.0496 27.2222 17.5C27.2222 16.9491 27.0356 16.4869 26.6622 16.1136C26.2889 15.7403 25.8274 15.5543 25.2778 15.5556H9.72222C9.1713 15.5556 8.70917 15.7422 8.33584 16.1156C7.9625 16.4889 7.77648 16.9504 7.77778 17.5C7.77778 18.0509 7.96445 18.5131 8.33778 18.8864C8.71111 19.2597 9.1726 19.4457 9.72222 19.4444ZM9.72222 11.6667H19.4444C19.9954 11.6667 20.4575 11.48 20.8308 11.1067C21.2042 10.7333 21.3902 10.2719 21.3889 9.72222C21.3889 9.1713 21.2022 8.70917 20.8289 8.33584C20.4556 7.9625 19.9941 7.77648 19.4444 7.77778H9.72222C9.1713 7.77778 8.70917 7.96445 8.33584 8.33778C7.9625 8.71111 7.77648 9.17259 7.77778 9.72222C7.77778 10.2731 7.96445 10.7353 8.33778 11.1086C8.71111 11.4819 9.1726 11.668 9.72222 11.6667Z" fill="white"/>
</svg>
