<svg width="31" height="31" viewBox="0 0 31 31" fill="none" xmlns="http://www.w3.org/2000/svg">
<rect x="0.302734" y="0.0908203" width="30.5657" height="30.5657" rx="2.14141" fill="#1D242A"/>
<path d="M10.0859 18.124C11.6047 18.124 12.8359 16.8928 12.8359 15.374C12.8359 13.8552 11.6047 12.624 10.0859 12.624C8.56715 12.624 7.33594 13.8552 7.33594 15.374C7.33594 16.8928 8.56715 18.124 10.0859 18.124Z" stroke="white" stroke-width="1.38209" stroke-linecap="round" stroke-linejoin="round"/>
<path d="M19.7109 24.3115C21.2297 24.3115 22.4609 23.0803 22.4609 21.5615C22.4609 20.0427 21.2297 18.8115 19.7109 18.8115C18.1922 18.8115 16.9609 20.0427 16.9609 21.5615C16.9609 23.0803 18.1922 24.3115 19.7109 24.3115Z" stroke="white" stroke-width="1.38209" stroke-linecap="round" stroke-linejoin="round"/>
<path d="M19.7109 11.9365C21.2297 11.9365 22.4609 10.7053 22.4609 9.18652C22.4609 7.66774 21.2297 6.43652 19.7109 6.43652C18.1922 6.43652 16.9609 7.66774 16.9609 9.18652C16.9609 10.7053 18.1922 11.9365 19.7109 11.9365Z" stroke="white" stroke-width="1.38209" stroke-linecap="round" stroke-linejoin="round"/>
<path d="M17.4 10.6729L12.3984 13.8869" stroke="white" stroke-width="1.38209" stroke-linecap="round" stroke-linejoin="round"/>
<path d="M12.3984 16.8604L17.4 20.0744" stroke="white" stroke-width="1.38209" stroke-linecap="round" stroke-linejoin="round"/>
</svg>
