<svg width="75" height="75" viewBox="0 0 75 75" fill="none" xmlns="http://www.w3.org/2000/svg">
<circle cx="37.5" cy="37.5" r="37.5" fill="#B21F18"/>
<path d="M37.5 39.25C38.547 39.25 39.5702 39.563 40.4379 40.1488C41.3057 40.7347 41.9785 41.5667 42.3698 42.5378C42.7611 43.509 42.8531 44.575 42.634 45.5988C42.4148 46.6227 41.8946 47.5576 41.14 48.2835L37.7975 51.5H42.75V55H32.25L32.2483 51.983L38.7128 45.7618C38.9213 45.5613 39.077 45.3122 39.1657 45.0368C39.2544 44.7614 39.2735 44.4683 39.2212 44.1838C39.1689 43.8992 39.0468 43.6321 38.866 43.4062C38.6851 43.1804 38.4511 43.0029 38.1849 42.8897C37.9186 42.7765 37.6285 42.731 37.3404 42.7574C37.0522 42.7838 36.7752 42.8812 36.5339 43.0409C36.2927 43.2007 36.0948 43.4177 35.958 43.6726C35.8212 43.9276 35.7497 44.2124 35.75 44.5018H32.25C32.2498 43.8122 32.3854 43.1293 32.6491 42.4921C32.9129 41.855 33.2995 41.276 33.7871 40.7883C34.2746 40.3006 34.8534 39.9137 35.4905 39.6498C36.1276 39.3859 36.8104 39.25 37.5 39.25ZM48 39.25V46.25H51.5V39.25H55V55H51.5V49.75H44.5V39.25H48ZM23.5 37.5C23.4978 39.5993 23.9687 41.6721 24.8776 43.5644C25.7865 45.4567 27.1101 47.1199 28.75 48.4305V52.6585C26.0887 51.1228 23.8789 48.9133 22.3429 46.2523C20.8068 43.5912 19.9988 40.5726 20 37.5H23.5ZM37.5 20C46.5738 20 54.0358 26.9073 54.9125 35.75H51.3915C51.0505 33.0463 49.928 30.5009 48.1616 28.4258C46.3951 26.3508 44.0616 24.8363 41.447 24.068C38.8324 23.2998 36.0505 23.3112 33.4423 24.1009C30.8341 24.8906 28.5131 26.4242 26.7638 28.5138L30.5 32.25H20V21.75L24.2788 26.0305C25.92 24.1351 27.9503 22.6154 30.2314 21.5748C32.5125 20.5342 34.991 19.9971 37.4983 20H37.5Z" fill="white"/>
</svg>
