<svg width="75" height="75" viewBox="0 0 75 75" fill="none" xmlns="http://www.w3.org/2000/svg">
<circle cx="37.5" cy="37.5" r="37.5" fill="#B21F18"/>
<path d="M38.3333 37.0003C35.95 37.0003 33.9097 36.1517 32.2125 34.4545C30.5153 32.7573 29.6667 30.717 29.6667 28.3337C29.6667 25.9503 30.5153 23.91 32.2125 22.2128C33.9097 20.5156 35.95 19.667 38.3333 19.667C40.7167 19.667 42.7569 20.5156 44.4542 22.2128C46.1514 23.91 47 25.9503 47 28.3337C47 30.717 46.1514 32.7573 44.4542 34.4545C42.7569 36.1517 40.7167 37.0003 38.3333 37.0003ZM25.3333 54.3337C24.1417 54.3337 23.1212 53.909 22.2718 53.0597C21.4225 52.2103 20.9986 51.1905 21 50.0003V48.267C21 47.0392 21.3163 45.9104 21.949 44.8805C22.5817 43.8506 23.4209 43.0655 24.4667 42.5253C26.7056 41.4059 28.9806 40.5659 31.2917 40.0055C33.6028 39.445 35.95 39.1655 38.3333 39.167C40.7167 39.167 43.0639 39.4472 45.375 40.0077C47.6861 40.5681 49.9611 41.4073 52.2 42.5253C53.2472 43.067 54.0872 43.8528 54.7198 44.8827C55.3525 45.9125 55.6681 47.0407 55.6667 48.267V50.0003C55.6667 51.192 55.242 52.2125 54.3927 53.0618C53.5433 53.9112 52.5236 54.3351 51.3333 54.3337H25.3333Z" fill="white"/>
</svg>
