<svg width="75" height="75" viewBox="0 0 75 75" fill="none" xmlns="http://www.w3.org/2000/svg">
<circle cx="37.5" cy="37.5" r="37.5" fill="#B21F18"/>
<path d="M37.5 20C27.8505 20 20 27.8505 20 37.5V44.7502C20 46.5422 21.5697 48 23.5 48H25.25C25.7141 48 26.1592 47.8156 26.4874 47.4874C26.8156 47.1593 27 46.7141 27 46.25V37.2498C27 36.7856 26.8156 36.3405 26.4874 36.0123C26.1592 35.6841 25.7141 35.4998 25.25 35.4998H23.661C24.634 28.7273 30.4615 23.5 37.5 23.5C44.5385 23.5 50.366 28.7273 51.339 35.4998H49.75C49.2859 35.4998 48.8407 35.6841 48.5126 36.0123C48.1844 36.3405 48 36.7856 48 37.2498V48C48 49.9303 46.4303 51.5 44.5 51.5H41V49.75H34V55H44.5C48.3605 55 51.5 51.8605 51.5 48C53.4302 48 55 46.5422 55 44.7502V37.5C55 27.8505 47.1495 20 37.5 20Z" fill="white"/>
</svg>
